Coordinates
version=1
nRows=13
nColumns=40
inDegrees=yes

Units are S.I. units (second, meters, Newtons, ...)
Angles are in degrees.

endheader
time	pelvis_tilt	pelvis_list	pelvis_rotation	pelvis_tx	pelvis_ty	pelvis_tz	hip_flexion_r	hip_adduction_r	hip_rotation_r	knee_angle_r	knee_angle_r_beta	ankle_angle_r	subtalar_angle_r	mtp_angle_r	hip_flexion_l	hip_adduction_l	hip_rotation_l	knee_angle_l	knee_angle_l_beta	ankle_angle_l	subtalar_angle_l	mtp_angle_l	lumbar_extension	lumbar_bending	lumbar_rotation	arm_flex_r	arm_add_r	arm_rot_r	elbow_flex_r	pro_sup_r	wrist_flex_r	wrist_dev_r	arm_flex_l	arm_add_l	arm_rot_l	elbow_flex_l	pro_sup_l	wrist_flex_l	wrist_dev_l
      4.28750000	     -5.02076658	     -5.88232407	      1.98807583	      1.02048172	      0.90681775	      0.53203170	     17.67871858	      8.34943027	     -8.61424821	     30.38205890	     30.38205890	     18.77160653	    -11.88900663	      1.14027775	     26.13796303	    -16.19347708	      3.44718717	     58.82075676	     58.82075676	     16.44106517	    -19.16529141	     16.25386757	    -10.78406612	      5.48383831	     -0.49150332	     18.08288120	    -14.95687684	     -4.39477083	     39.00676016	     45.94915490	      0.00000000	      0.00000000	      7.79232489	     -7.11618105	     -4.82531334	     21.96828539	     46.09362843	      0.00000000	      0.00000000
      4.31071429	     -5.04507354	     -5.83703935	      2.72439921	      1.01827098	      0.90744840	      0.53250508	     17.29386497	      8.28783592	     -9.05750038	     29.85795378	     29.85795378	     18.77736748	    -12.00589194	      1.26264332	     27.36941503	    -16.03694453	      3.85569386	     58.16941819	     58.16941819	     16.59921257	    -19.26870920	     17.02608013	    -10.82827808	      5.25118068	     -0.31367599	     21.43421251	    -15.42631253	     -4.45345561	     41.40951855	     45.87972081	      0.00000000	      0.00000000	      4.58853750	     -7.02939426	     -4.45341229	     20.61230328	     45.94937542	      0.00000000	      0.00000000
      4.33392857	     -5.25149524	     -5.63189146	      3.38337677	      1.01592371	      0.90834932	      0.53257249	     17.05760113	      8.03031785	     -9.41566088	     29.27333630	     29.27333630	     18.73322417	    -12.06654417	      1.39345273	     28.52362405	    -15.64951022	      4.09430692	     56.80307265	     56.80307265	     16.56902201	    -19.31831003	     17.28128668	    -10.65387877	      4.81166646	      0.99851040	     24.41561647	    -16.77170918	     -4.72963360	     42.75933959	     45.86275082	      0.00000000	      0.00000000	      2.04279548	     -6.86120665	     -4.41574946	     19.71023127	     45.88681699	      0.00000000	      0.00000000
      4.35714286	     -5.32483700	     -5.50894557	      4.21151017	      1.01363319	      0.90985076	      0.53208011	     16.34002716	      7.80908674	    -10.08846338	     28.03536283	     28.03536283	     18.28210939	    -11.84106021	      0.50951727	     29.47287741	    -15.12182201	      4.70328728	     54.98009105	     54.98009105	     16.77020212	    -19.28778950	     18.45273675	    -10.70940543	      4.64354252	      0.45391385	     27.28642773	    -17.68540098	     -1.51931285	     48.60940907	     45.50546432	      0.00000000	      0.00000000	     -2.80532823	     -8.41756767	      6.81517050	     22.17424492	     43.35435601	      0.00000000	      0.00000000
      4.38035714	     -5.49544386	     -5.30327723	      4.97478021	      1.01130129	      0.91170804	      0.53123224	     15.67883505	      7.50314558	    -10.67184533	     26.75917424	     26.75917424	     18.11140537	    -11.43792903	      0.75005474	     30.19407441	    -14.46271969	      5.20442771	     52.45634612	     52.45634612	     16.44345561	    -19.22612075	     18.46131546	    -10.59753143	      4.29596699	      0.76015752	     30.70853495	    -18.16712564	     -2.14563713	     50.89297529	     45.47079220	      0.00000000	      0.00000000	     -5.55661873	     -8.47922956	      6.99577293	     21.61064665	     43.28519580	      0.00000000	      0.00000000
      4.40357143	     -5.84063527	     -5.00476080	      5.75973410	      1.00884673	      0.91338151	      0.52985491	     15.20636914	      6.98550091	    -11.49648694	     25.52578664	     25.52578664	     17.86153530	    -10.71002404	      0.46360576	     30.87103351	    -13.61721164	      5.68437320	     49.43789002	     49.43789002	     15.38839112	    -19.10959981	     16.74477280	    -10.36847752	      3.90175109	      0.95345738	     33.62707500	    -18.81148958	     -2.71747429	     54.87450419	     45.37318753	      0.00000000	      0.00000000	     -8.86274766	     -8.89698813	      7.72859972	     23.18329305	     43.12000458	      0.00000000	      0.00000000
      4.42678571	     -6.12757769	     -4.67172025	      6.50659895	      1.00647059	      0.91547268	      0.52813419	     14.50023013	      6.53728562	    -12.02219143	     23.98246239	     23.98246239	     17.56342496	    -10.28813377	      0.70827525	     31.26173253	    -12.63090055	      6.29423046	     46.10152838	     46.10152838	     14.77839457	    -18.87620984	     16.77019621	    -10.12496119	      3.46799766	      1.44950460	     36.97004923	    -19.57817362	     -3.07869223	     56.83949801	     45.33798106	      0.00000000	      0.00000000	    -10.95510656	     -9.00022523	      7.97135043	     22.75172378	     43.04979386	      0.00000000	      0.00000000
      4.45000000	     -6.35791015	     -4.38263799	      7.29161129	      1.00422459	      0.91755647	      0.52602781	     13.66747446	      6.08054907	    -12.84876316	     22.36042392	     22.36042392	     17.27151263	     -9.42174306	      0.73596875	     31.39957743	    -11.67522582	      6.92729326	     42.47712628	     42.47712628	     13.88318689	    -18.45787213	     16.17854853	     -9.99676334	      3.11040232	      1.47094316	     40.21340583	    -19.92955529	     -3.31175016	     59.59623856	     45.26981121	      0.00000000	      0.00000000	    -13.18229697	     -9.10801493	      8.29428445	     22.76511986	     42.95840436	      0.00000000	      0.00000000
      4.47321429	     -6.61382207	     -4.11784197	      8.04184721	      1.00204840	      0.91932259	      0.52358603	     12.89523986	      5.61597850	    -13.76323479	     20.83837437	     20.83837437	     16.96552495	     -8.41677986	      0.55794568	     31.42216027	    -10.79002947	      7.42203389	     38.73838037	     38.73838037	     12.78324421	    -17.67920252	     14.92930713	     -9.86313884	      2.82216097	      1.57720061	     43.20745582	    -20.36743453	     -3.48971238	     62.67348263	     45.18906238	      0.00000000	      0.00000000	    -15.29977747	     -9.23951452	      8.68272559	     23.35342014	     42.85669435	      0.00000000	      0.00000000
      4.49642857	     -6.98031595	     -3.95367915	      8.73782120	      0.99993815	      0.92034966	      0.52097264	     12.35926378	      5.25299901	    -14.58415190	     19.48211259	     19.48211259	     16.22130923	     -7.86968917	     -1.07435588	     31.35071000	    -10.16129935	      7.48772380	     34.66472909	     34.66472909	      9.79445414	    -16.87034566	      8.73414248	     -9.58244130	      2.67581217	      2.57165491	     45.20768801	    -21.81511831	     -3.98263191	     67.21807452	     45.18135999	      0.00000000	      0.00000000	    -17.57078375	    -11.08235418	     17.86220548	     27.22053185	     42.25360292	      0.00000000	      0.00000000
      4.51964286	     -7.25473389	     -3.76224534	      9.36833974	      0.99802047	      0.92145353	      0.51815973	     11.76315226	      4.90906716	    -15.19764680	     18.28197955	     18.28197955	     16.05035519	     -7.34287201	     -0.91667437	     31.25529194	     -9.47151264	      7.50180124	     31.19005734	     31.19005734	      9.36307798	    -15.05597558	      9.02699983	     -9.37665040	      2.44247479	      2.76646644	     48.12958984	    -22.05287684	     -4.24575122	     69.11489801	     45.14393414	      0.00000000	      0.00000000	    -18.76093880	    -10.97749242	     17.91840875	     27.15059667	     42.26240914	      0.00000000	      0.00000000
      4.54285714	     -7.45573354	     -3.70847079	      9.99643713	      0.99643824	      0.92211948	      0.51508185	     11.15982717	      4.68495142	    -15.93708685	     17.23130201	     17.23130201	     15.93158459	     -6.63029222	     -0.94838945	     31.11641058	     -8.95274263	      7.32140641	     28.06861194	     28.06861194	      8.95995942	    -12.93535636	      8.94505604	     -9.19694320	      2.39512031	      2.83594335	     50.76083144	    -22.08362603	     -4.44805600	     71.47327982	     45.08910641	      0.00000000	      0.00000000	    -19.84724231	    -10.81135180	     17.93758417	     27.46575109	     42.28747007	      0.00000000	      0.00000000
      4.56607143	     -7.65737063	     -3.71058014	     10.52694423	      0.99501712	      0.92234980	      0.51190129	     10.70022822	      4.50169799	    -16.57237354	     16.46846053	     16.46846053	     15.87880054	     -6.11206333	     -1.09238882	     30.96823098	     -8.54382058	      6.81284743	     25.28449334	     25.28449334	      8.48594053	    -10.72086244	      8.77499040	     -9.03655328	      2.40452844	      2.98604121	     53.02395890	    -22.07278820	     -4.63633602	     73.81549316	     45.03423248	      0.00000000	      0.00000000	    -20.64425639	    -10.64191775	     17.93802119	     27.98694334	     42.32532408	      0.00000000	      0.00000000
